<?xml version="1.0" encoding="UTF-8"?>
<svg id="Layer_1" xmlns="http://www.w3.org/2000/svg" version="1.1" viewBox="0 0 90 90">
  <!-- Generator: Adobe Illustrator 29.8.1, SVG Export Plug-In . SVG Version: 2.1.1 Build 2)  -->
  <defs>
    <style>
      .st0 {
        fill: #fff;
      }
    </style>
  </defs>
  <path class="st0" d="M45,89.43c-11.87,0-23.02-4.62-31.42-13.01C5.19,68.02.57,56.87.57,45S5.19,21.98,13.58,13.58C21.98,5.19,33.13.57,45,.57s23.02,4.62,31.42,13.01c8.39,8.39,13.01,19.55,13.01,31.42s-4.62,23.02-13.01,31.42c-8.39,8.39-19.55,13.01-31.42,13.01ZM45,4.77C22.82,4.77,4.77,22.82,4.77,45s18.05,40.23,40.23,40.23,40.23-18.05,40.23-40.23S67.18,4.77,45,4.77Z"/>
  <rect class="st0" x="22.63" y="37.36" width="10.83" height="30.27"/>
  <path class="st0" d="M39.05,37.36h8.36v4.2s1.29-4.24,9.01-4.24c6.38,0,10.94,2.49,10.94,9.31v20.99h-8.93s.05-17.66.1-18.2c.05-.54-.49-5-5.04-5s-5.98,3.26-5.98,5.74v17.46h-8.46v-30.27Z"/>
  <circle class="st0" cx="28.05" cy="27.79" r="5.42" transform="translate(-5.44 48.7) rotate(-76.72)"/>
</svg>