<?xml version="1.0" encoding="UTF-8"?>
<svg id="Layer_1" xmlns="http://www.w3.org/2000/svg" version="1.1" viewBox="0 0 90 90">
  <!-- Generator: Adobe Illustrator 29.8.1, SVG Export Plug-In . SVG Version: 2.1.1 Build 2)  -->
  <defs>
    <style>
      .st0 {
        fill: #010101;
      }
    </style>
  </defs>
  <path class="st0" d="M45,89.43c-11.87,0-23.02-4.62-31.42-13.01S.57,56.87.57,45,5.19,21.98,13.58,13.58C21.98,5.19,33.13.57,45,.57s23.02,4.62,31.42,13.01c8.39,8.39,13.01,19.55,13.01,31.42s-4.62,23.02-13.01,31.42c-8.39,8.39-19.55,13.01-31.42,13.01ZM45,4.77C22.82,4.77,4.77,22.82,4.77,45s18.05,40.23,40.23,40.23,40.23-18.05,40.23-40.23S67.18,4.77,45,4.77Z"/>
  <path class="st0" d="M61.02,27.47H28.98c-5.03,0-9.14,4.11-9.14,9.14v16.78c0,5.03,4.11,9.14,9.14,9.14h32.05c5.03,0,9.14-4.11,9.14-9.14v-16.78c0-5.03-4.11-9.14-9.14-9.14ZM46.41,49.96l-7.81,4.83v-19.32l7.81,4.83,7.81,4.83-7.81,4.83Z"/>
</svg>