<?xml version="1.0" encoding="UTF-8"?>
<svg id="Layer_1" xmlns="http://www.w3.org/2000/svg" version="1.1" viewBox="0 0 90 90">
  <!-- Generator: Adobe Illustrator 29.8.1, SVG Export Plug-In . SVG Version: 2.1.1 Build 2)  -->
  <defs>
    <style>
      .st0 {
        fill: #010101;
      }
    </style>
  </defs>
  <path class="st0" d="M45,89.43c-11.87,0-23.02-4.62-31.42-13.01C5.19,68.02.57,56.87.57,45S5.19,21.98,13.58,13.58C21.98,5.19,33.13.57,45,.57s23.02,4.62,31.42,13.01c8.39,8.39,13.01,19.55,13.01,31.42s-4.62,23.02-13.01,31.42c-8.39,8.39-19.55,13.01-31.42,13.01ZM45,4.77C22.82,4.77,4.77,22.82,4.77,45s18.05,40.23,40.23,40.23,40.23-18.05,40.23-40.23S67.18,4.77,45,4.77Z"/>
  <path class="st0" d="M54.04,68.66h-18.08c-8.06,0-14.62-6.56-14.62-14.62v-18.08c0-8.06,6.56-14.62,14.62-14.62h18.08c8.06,0,14.62,6.56,14.62,14.62v18.08c0,8.06-6.56,14.62-14.62,14.62ZM35.96,26.61c-5.15,0-9.34,4.19-9.34,9.34v18.08c0,5.15,4.19,9.34,9.34,9.34h18.08c5.15,0,9.34-4.19,9.34-9.34v-18.08c0-5.15-4.19-9.34-9.34-9.34h-18.08Z"/>
  <path class="st0" d="M45,57.09c-6.67,0-12.09-5.43-12.09-12.09s5.43-12.09,12.09-12.09,12.09,5.43,12.09,12.09-5.43,12.09-12.09,12.09ZM45,37.65c-4.05,0-7.35,3.3-7.35,7.35s3.3,7.35,7.35,7.35,7.35-3.3,7.35-7.35-3.3-7.35-7.35-7.35Z"/>
  <path class="st0" d="M59.75,32.2c0,1.13-.92,2.04-2.04,2.04s-2.04-.92-2.04-2.04.92-2.04,2.04-2.04,2.04.92,2.04,2.04Z"/>
</svg>